<svg width="24" height="24" viewBox="0 0 24 24" fill="none" xmlns="http://www.w3.org/2000/svg">
  <rect width="24" height="24" rx="6" fill="#16a34a"/>
  <path d="M12 5C10.3431 5 9 6.34315 9 8V18C9 19.6569 10.3431 21 12 21C13.6569 21 15 19.6569 15 18V8C15 6.34315 13.6569 5 12 5Z" fill="white"/>
  <path d="M7 11C5.34315 11 4 12.3431 4 14C4 16.7614 6.23858 19 9 19C11.7614 19 14 16.7614 14 14C14 12.3431 12.6569 11 11 11C9.34315 11 8 12.3431 8 14C8 14.5523 7.55228 15 7 15C6.44772 15 6 14.5523 6 14C6 12.3431 5.34315 11 4 11H7Z" fill="white"/>
</svg>